<?xml version="1.0" encoding="UTF-8" standalone="no"?>
<!DOCTYPE svg PUBLIC "-//W3C//DTD SVG 1.1//EN"
 "http://www.w3.org/Graphics/SVG/1.1/DTD/svg11.dtd">
<!-- Generated by graphviz version 7.0.4 (20221203.1631)
 -->
<!-- Pages: 1 -->
<svg width="4131pt" height="601pt"
 viewBox="0.00 0.00 4131.00 601.00" xmlns="http://www.w3.org/2000/svg" xmlns:xlink="http://www.w3.org/1999/xlink">
<g id="graph0" class="graph" transform="scale(1 1) rotate(0) translate(4 597)">
<polygon fill="white" stroke="none" points="-4,4 -4,-597 4127,-597 4127,4 -4,4"/>
<!-- 1 -->
<g id="node1" class="node">
<title>1</title>
<polygon fill="#fc1300" stroke="#fc1300" points="1878.5,-593 1828.5,-593 1828.5,-552 1878.5,-552 1878.5,-593"/>
<text text-anchor="middle" x="1853.5" y="-581" font-family="Arial" font-size="10.00" fill="#ffffff">main</text>
<text text-anchor="middle" x="1853.5" y="-570" font-family="Arial" font-size="10.00" fill="#ffffff">98.18%</text>
<text text-anchor="middle" x="1853.5" y="-559" font-family="Arial" font-size="10.00" fill="#ffffff">(0.01%)</text>
</g>
<!-- 2 -->
<g id="node2" class="node">
<title>2</title>
<polygon fill="#e98a03" stroke="#e98a03" points="897,-512 634,-512 634,-460 897,-460 897,-512"/>
<text text-anchor="middle" x="765.5" y="-500" font-family="Arial" font-size="10.00" fill="#ffffff">myMatching(int*, int*, int*, int*, Matcher::p_match*, int&amp;)</text>
<text text-anchor="middle" x="765.5" y="-489" font-family="Arial" font-size="10.00" fill="#ffffff">85.32%</text>
<text text-anchor="middle" x="765.5" y="-478" font-family="Arial" font-size="10.00" fill="#ffffff">(0.13%)</text>
<text text-anchor="middle" x="765.5" y="-467" font-family="Arial" font-size="10.00" fill="#ffffff">373×</text>
</g>
<!-- 1&#45;&gt;2 -->
<g id="edge1" class="edge">
<title>1&#45;&gt;2</title>
<path fill="none" stroke="#e98a03" stroke-width="3.41" d="M1828.21,-569.54C1706.1,-560.05 1172.78,-518.63 911.21,-498.32"/>
<polygon fill="#e98a03" stroke="#e98a03" stroke-width="3.41" points="911.62,-495.12 902.2,-497.62 911.13,-501.54 911.62,-495.12"/>
<text text-anchor="middle" x="1488.5" y="-535" font-family="Arial" font-size="10.00" fill="#e98a03">85.32%</text>
<text text-anchor="middle" x="1488.5" y="-524" font-family="Arial" font-size="10.00" fill="#e98a03">373×</text>
</g>
<!-- 4 -->
<g id="node3" class="node">
<title>4</title>
<polygon fill="#0d297b" stroke="#0d297b" points="1715.5,-512 1497.5,-512 1497.5,-460 1715.5,-460 1715.5,-512"/>
<text text-anchor="middle" x="1606.5" y="-500" font-family="Arial" font-size="10.00" fill="#ffffff">myComputeFeatures(unsigned char*, int*, int*)</text>
<text text-anchor="middle" x="1606.5" y="-489" font-family="Arial" font-size="10.00" fill="#ffffff">6.35%</text>
<text text-anchor="middle" x="1606.5" y="-478" font-family="Arial" font-size="10.00" fill="#ffffff">(0.00%)</text>
<text text-anchor="middle" x="1606.5" y="-467" font-family="Arial" font-size="10.00" fill="#ffffff">373×</text>
</g>
<!-- 1&#45;&gt;4 -->
<g id="edge2" class="edge">
<title>1&#45;&gt;4</title>
<path fill="none" stroke="#0d297b" stroke-width="0.5" d="M1828.46,-562.93C1795.05,-551.5 1734.36,-530.74 1684.88,-513.81"/>
<polygon fill="#0d297b" stroke="#0d297b" stroke-width="0.5" points="1685.46,-512.72 1681.75,-512.74 1684.67,-515.04 1685.46,-512.72"/>
<text text-anchor="middle" x="1781.5" y="-535" font-family="Arial" font-size="10.00" fill="#0d297b">6.35%</text>
<text text-anchor="middle" x="1781.5" y="-524" font-family="Arial" font-size="10.00" fill="#0d297b">373×</text>
</g>
<!-- 5 -->
<g id="node4" class="node">
<title>5</title>
<polygon fill="#0d2179" stroke="#0d2179" points="2201,-512 1746,-512 1746,-460 2201,-460 2201,-512"/>
<text text-anchor="middle" x="1973.5" y="-500" font-family="Arial" font-size="10.00" fill="#ffffff">VisualOdometry::updateMotion(std::vector&lt;Matcher::p_match, std::allocator&lt;Matcher::p_match&gt; &gt;&amp;)</text>
<text text-anchor="middle" x="1973.5" y="-489" font-family="Arial" font-size="10.00" fill="#ffffff">4.60%</text>
<text text-anchor="middle" x="1973.5" y="-478" font-family="Arial" font-size="10.00" fill="#ffffff">(0.00%)</text>
<text text-anchor="middle" x="1973.5" y="-467" font-family="Arial" font-size="10.00" fill="#ffffff">373×</text>
</g>
<!-- 1&#45;&gt;5 -->
<g id="edge3" class="edge">
<title>1&#45;&gt;5</title>
<path fill="none" stroke="#0d2179" stroke-width="0.5" d="M1878.95,-553.58C1895.08,-542.22 1916.26,-527.31 1934.49,-514.47"/>
<polygon fill="#0d2179" stroke="#0d2179" stroke-width="0.5" points="1934.84,-515.72 1937,-512.7 1933.43,-513.72 1934.84,-515.72"/>
<text text-anchor="middle" x="1938.5" y="-535" font-family="Arial" font-size="10.00" fill="#0d2179">4.60%</text>
<text text-anchor="middle" x="1938.5" y="-524" font-family="Arial" font-size="10.00" fill="#0d2179">373×</text>
</g>
<!-- 11 -->
<g id="node5" class="node">
<title>11</title>
<polygon fill="#0d1575" stroke="#0d1575" points="2933,-512 2676,-512 2676,-460 2933,-460 2933,-512"/>
<text text-anchor="middle" x="2804.5" y="-500" font-family="Arial" font-size="10.00" fill="#ffffff">removeOutliers(Matcher::p_match*, int&amp;, int, float, float)</text>
<text text-anchor="middle" x="2804.5" y="-489" font-family="Arial" font-size="10.00" fill="#ffffff">1.89%</text>
<text text-anchor="middle" x="2804.5" y="-478" font-family="Arial" font-size="10.00" fill="#ffffff">(0.05%)</text>
<text text-anchor="middle" x="2804.5" y="-467" font-family="Arial" font-size="10.00" fill="#ffffff">373×</text>
</g>
<!-- 1&#45;&gt;11 -->
<g id="edge4" class="edge">
<title>1&#45;&gt;11</title>
<path fill="none" stroke="#0d1575" stroke-width="0.5" d="M1878.94,-569.24C1990.82,-559.3 2443.7,-519.06 2671.82,-498.79"/>
<polygon fill="#0d1575" stroke="#0d1575" stroke-width="0.5" points="2671.7,-500.03 2675.08,-498.5 2671.49,-497.59 2671.7,-500.03"/>
<text text-anchor="middle" x="2428.5" y="-535" font-family="Arial" font-size="10.00" fill="#0d1575">1.89%</text>
<text text-anchor="middle" x="2428.5" y="-524" font-family="Arial" font-size="10.00" fill="#0d1575">373×</text>
</g>
<!-- 3 -->
<g id="node6" class="node">
<title>3</title>
<polygon fill="#e98b03" stroke="#e98b03" points="349,-420 0,-420 0,-368 349,-368 349,-420"/>
<text text-anchor="middle" x="174.5" y="-408" font-family="Arial" font-size="10.00" fill="#ffffff">myCreateIndexVector(int*, int&amp;, int (*) [160], int*, int const&amp;, int const&amp;, int*)</text>
<text text-anchor="middle" x="174.5" y="-397" font-family="Arial" font-size="10.00" fill="#ffffff">85.19%</text>
<text text-anchor="middle" x="174.5" y="-386" font-family="Arial" font-size="10.00" fill="#ffffff">(85.15%)</text>
<text text-anchor="middle" x="174.5" y="-375" font-family="Arial" font-size="10.00" fill="#ffffff">13421996×</text>
</g>
<!-- 2&#45;&gt;3 -->
<g id="edge5" class="edge">
<title>2&#45;&gt;3</title>
<path fill="none" stroke="#e98b03" stroke-width="3.41" d="M633.6,-464.91C551.74,-452.45 445.41,-436.26 355.7,-422.59"/>
<polygon fill="#e98b03" stroke="#e98b03" stroke-width="3.41" points="356.42,-419.45 346.84,-421.24 355.45,-425.81 356.42,-419.45"/>
<text text-anchor="middle" x="565" y="-443" font-family="Arial" font-size="10.00" fill="#e98b03">85.19%</text>
<text text-anchor="middle" x="565" y="-432" font-family="Arial" font-size="10.00" fill="#e98b03">13421996×</text>
</g>
<!-- 7 -->
<g id="node7" class="node">
<title>7</title>
<polygon fill="#0d1876" stroke="#0d1876" points="998.5,-420 358.5,-420 358.5,-368 998.5,-368 998.5,-420"/>
<text text-anchor="middle" x="678.5" y="-408" font-family="Arial" font-size="10.00" fill="#ffffff">myNonMaximumSuppression_and_ComputeDescriptors(short*, short*, int const*, unsigned char*, unsigned char*, int*, int*) [clone .constprop.0]</text>
<text text-anchor="middle" x="678.5" y="-397" font-family="Arial" font-size="10.00" fill="#ffffff">2.58%</text>
<text text-anchor="middle" x="678.5" y="-386" font-family="Arial" font-size="10.00" fill="#ffffff">(1.81%)</text>
<text text-anchor="middle" x="678.5" y="-375" font-family="Arial" font-size="10.00" fill="#ffffff">373×</text>
</g>
<!-- 4&#45;&gt;7 -->
<g id="edge6" class="edge">
<title>4&#45;&gt;7</title>
<path fill="none" stroke="#0d1876" stroke-width="0.5" d="M1497.32,-474.41C1362.48,-461.33 1128.49,-438.64 945.08,-420.85"/>
<polygon fill="#0d1876" stroke="#0d1876" stroke-width="0.5" points="945.39,-419.65 941.79,-420.53 945.15,-422.09 945.39,-419.65"/>
<text text-anchor="middle" x="1267.5" y="-443" font-family="Arial" font-size="10.00" fill="#0d1876">2.58%</text>
<text text-anchor="middle" x="1267.5" y="-432" font-family="Arial" font-size="10.00" fill="#0d1876">373×</text>
</g>
<!-- 9 -->
<g id="node8" class="node">
<title>9</title>
<polygon fill="#0d1676" stroke="#0d1676" points="1439,-420 1008,-420 1008,-368 1439,-368 1439,-420"/>
<text text-anchor="middle" x="1223.5" y="-408" font-family="Arial" font-size="10.00" fill="#ffffff">mySobel5x5(unsigned char const*, unsigned char*, unsigned char*, int, int) [clone .constprop.0]</text>
<text text-anchor="middle" x="1223.5" y="-397" font-family="Arial" font-size="10.00" fill="#ffffff">2.29%</text>
<text text-anchor="middle" x="1223.5" y="-386" font-family="Arial" font-size="10.00" fill="#ffffff">(1.96%)</text>
<text text-anchor="middle" x="1223.5" y="-375" font-family="Arial" font-size="10.00" fill="#ffffff">373×</text>
</g>
<!-- 4&#45;&gt;9 -->
<g id="edge7" class="edge">
<title>4&#45;&gt;9</title>
<path fill="none" stroke="#0d1676" stroke-width="0.5" d="M1498.03,-459.51C1447.37,-447.61 1387.1,-433.44 1335.95,-421.43"/>
<polygon fill="#0d1676" stroke="#0d1676" stroke-width="0.5" points="1336.4,-420.27 1332.71,-420.66 1335.84,-422.66 1336.4,-420.27"/>
<text text-anchor="middle" x="1475.5" y="-443" font-family="Arial" font-size="10.00" fill="#0d1676">2.29%</text>
<text text-anchor="middle" x="1475.5" y="-432" font-family="Arial" font-size="10.00" fill="#0d1676">373×</text>
</g>
<!-- 18 -->
<g id="node9" class="node">
<title>18</title>
<polygon fill="#0d1174" stroke="#0d1174" points="1765,-420 1448,-420 1448,-368 1765,-368 1765,-420"/>
<text text-anchor="middle" x="1606.5" y="-408" font-family="Arial" font-size="10.00" fill="#ffffff">myBlob5x5(unsigned char const*, short*, int, int) [clone .constprop.0]</text>
<text text-anchor="middle" x="1606.5" y="-397" font-family="Arial" font-size="10.00" fill="#ffffff">0.96%</text>
<text text-anchor="middle" x="1606.5" y="-386" font-family="Arial" font-size="10.00" fill="#ffffff">(0.70%)</text>
<text text-anchor="middle" x="1606.5" y="-375" font-family="Arial" font-size="10.00" fill="#ffffff">373×</text>
</g>
<!-- 4&#45;&gt;18 -->
<g id="edge8" class="edge">
<title>4&#45;&gt;18</title>
<path fill="none" stroke="#0d1174" stroke-width="0.5" d="M1606.5,-459.93C1606.5,-448.91 1606.5,-435.88 1606.5,-424.4"/>
<polygon fill="#0d1174" stroke="#0d1174" stroke-width="0.5" points="1607.73,-424.5 1606.5,-421 1605.28,-424.5 1607.73,-424.5"/>
<text text-anchor="middle" x="1620.5" y="-443" font-family="Arial" font-size="10.00" fill="#0d1174">0.96%</text>
<text text-anchor="middle" x="1620.5" y="-432" font-family="Arial" font-size="10.00" fill="#0d1174">373×</text>
</g>
<!-- 24 -->
<g id="node10" class="node">
<title>24</title>
<polygon fill="#0d0f73" stroke="#0d0f73" points="2131,-420 1774,-420 1774,-368 2131,-368 2131,-420"/>
<text text-anchor="middle" x="1952.5" y="-408" font-family="Arial" font-size="10.00" fill="#ffffff">myCheckerboard5x5(unsigned char const*, short*, int, int) [clone .constprop.0]</text>
<text text-anchor="middle" x="1952.5" y="-397" font-family="Arial" font-size="10.00" fill="#ffffff">0.53%</text>
<text text-anchor="middle" x="1952.5" y="-386" font-family="Arial" font-size="10.00" fill="#ffffff">(0.31%)</text>
<text text-anchor="middle" x="1952.5" y="-375" font-family="Arial" font-size="10.00" fill="#ffffff">373×</text>
</g>
<!-- 4&#45;&gt;24 -->
<g id="edge9" class="edge">
<title>4&#45;&gt;24</title>
<path fill="none" stroke="#0d0f73" stroke-width="0.5" d="M1704.26,-459.57C1750.04,-447.66 1804.54,-433.49 1850.8,-421.45"/>
<polygon fill="#0d0f73" stroke="#0d0f73" stroke-width="0.5" points="1850.87,-422.7 1853.95,-420.64 1850.25,-420.33 1850.87,-422.7"/>
<text text-anchor="middle" x="1835.5" y="-443" font-family="Arial" font-size="10.00" fill="#0d0f73">0.53%</text>
<text text-anchor="middle" x="1835.5" y="-432" font-family="Arial" font-size="10.00" fill="#0d0f73">373×</text>
</g>
<!-- 6 -->
<g id="node11" class="node">
<title>6</title>
<polygon fill="#0d2079" stroke="#0d2079" points="2627,-420 2146,-420 2146,-368 2627,-368 2627,-420"/>
<text text-anchor="middle" x="2386.5" y="-408" font-family="Arial" font-size="10.00" fill="#ffffff">VisualOdometryMono::estimateMotion(std::vector&lt;Matcher::p_match, std::allocator&lt;Matcher::p_match&gt; &gt;)</text>
<text text-anchor="middle" x="2386.5" y="-397" font-family="Arial" font-size="10.00" fill="#ffffff">4.55%</text>
<text text-anchor="middle" x="2386.5" y="-386" font-family="Arial" font-size="10.00" fill="#ffffff">(0.01%)</text>
<text text-anchor="middle" x="2386.5" y="-375" font-family="Arial" font-size="10.00" fill="#ffffff">373×</text>
</g>
<!-- 5&#45;&gt;6 -->
<g id="edge10" class="edge">
<title>5&#45;&gt;6</title>
<path fill="none" stroke="#0d2079" stroke-width="0.5" d="M2090.47,-459.51C2145.2,-447.58 2210.35,-433.39 2265.57,-421.35"/>
<polygon fill="#0d2079" stroke="#0d2079" stroke-width="0.5" points="2265.63,-422.59 2268.79,-420.65 2265.11,-420.2 2265.63,-422.59"/>
<text text-anchor="middle" x="2243.5" y="-443" font-family="Arial" font-size="10.00" fill="#0d2079">4.55%</text>
<text text-anchor="middle" x="2243.5" y="-432" font-family="Arial" font-size="10.00" fill="#0d2079">373×</text>
</g>
<!-- 13 -->
<g id="node19" class="node">
<title>13</title>
<polygon fill="#0d1475" stroke="#0d1475" points="3119,-420 2956,-420 2956,-368 3119,-368 3119,-420"/>
<text text-anchor="middle" x="3037.5" y="-408" font-family="Arial" font-size="10.00" fill="#ffffff">delaunator::Delaunator::delaunat()</text>
<text text-anchor="middle" x="3037.5" y="-397" font-family="Arial" font-size="10.00" fill="#ffffff">1.74%</text>
<text text-anchor="middle" x="3037.5" y="-386" font-family="Arial" font-size="10.00" fill="#ffffff">(0.05%)</text>
<text text-anchor="middle" x="3037.5" y="-375" font-family="Arial" font-size="10.00" fill="#ffffff">372×</text>
</g>
<!-- 11&#45;&gt;13 -->
<g id="edge18" class="edge">
<title>11&#45;&gt;13</title>
<path fill="none" stroke="#0d1475" stroke-width="0.5" d="M2870.33,-459.57C2900.85,-447.78 2937.13,-433.77 2968.08,-421.81"/>
<polygon fill="#0d1475" stroke="#0d1475" stroke-width="0.5" points="2968.3,-423.04 2971.12,-420.64 2967.42,-420.76 2968.3,-423.04"/>
<text text-anchor="middle" x="2963.5" y="-443" font-family="Arial" font-size="10.00" fill="#0d1475">1.74%</text>
<text text-anchor="middle" x="2963.5" y="-432" font-family="Arial" font-size="10.00" fill="#0d1475">372×</text>
</g>
<!-- 23 -->
<g id="node16" class="node">
<title>23</title>
<polygon fill="#0d1074" stroke="#0d1074" points="770,-328 587,-328 587,-276 770,-276 770,-328"/>
<text text-anchor="middle" x="678.5" y="-316" font-family="Arial" font-size="10.00" fill="#ffffff">myGetAddressOffsetImage(int, int, int)</text>
<text text-anchor="middle" x="678.5" y="-305" font-family="Arial" font-size="10.00" fill="#ffffff">0.75%</text>
<text text-anchor="middle" x="678.5" y="-294" font-family="Arial" font-size="10.00" fill="#ffffff">(0.75%)</text>
<text text-anchor="middle" x="678.5" y="-283" font-family="Arial" font-size="10.00" fill="#ffffff">5583806625×</text>
</g>
<!-- 7&#45;&gt;23 -->
<g id="edge15" class="edge">
<title>7&#45;&gt;23</title>
<path fill="none" stroke="#0d1074" stroke-width="0.5" d="M678.5,-367.93C678.5,-356.91 678.5,-343.88 678.5,-332.4"/>
<polygon fill="#0d1074" stroke="#0d1074" stroke-width="0.5" points="679.73,-332.5 678.5,-329 677.28,-332.5 679.73,-332.5"/>
<text text-anchor="middle" x="708" y="-351" font-family="Arial" font-size="10.00" fill="#0d1074">0.75%</text>
<text text-anchor="middle" x="708" y="-340" font-family="Arial" font-size="10.00" fill="#0d1074">5577096000×</text>
</g>
<!-- 20 -->
<g id="node18" class="node">
<title>20</title>
<polygon fill="#0d1074" stroke="#0d1074" points="1359.5,-328 1087.5,-328 1087.5,-276 1359.5,-276 1359.5,-328"/>
<text text-anchor="middle" x="1223.5" y="-316" font-family="Arial" font-size="10.00" fill="#ffffff">myGetAddressOffsetImage(int, int, int) [clone .constprop.0]</text>
<text text-anchor="middle" x="1223.5" y="-305" font-family="Arial" font-size="10.00" fill="#ffffff">0.80%</text>
<text text-anchor="middle" x="1223.5" y="-294" font-family="Arial" font-size="10.00" fill="#ffffff">(0.80%)</text>
<text text-anchor="middle" x="1223.5" y="-283" font-family="Arial" font-size="10.00" fill="#ffffff">6711836600×</text>
</g>
<!-- 9&#45;&gt;20 -->
<g id="edge16" class="edge">
<title>9&#45;&gt;20</title>
<path fill="none" stroke="#0d0e73" stroke-width="0.5" d="M1223.5,-367.93C1223.5,-356.91 1223.5,-343.88 1223.5,-332.4"/>
<polygon fill="#0d0e73" stroke="#0d0e73" stroke-width="0.5" points="1224.73,-332.5 1223.5,-329 1222.28,-332.5 1224.73,-332.5"/>
<text text-anchor="middle" x="1253" y="-351" font-family="Arial" font-size="10.00" fill="#0d0e73">0.33%</text>
<text text-anchor="middle" x="1253" y="-340" font-family="Arial" font-size="10.00" fill="#0d0e73">2769748800×</text>
</g>
<!-- 18&#45;&gt;20 -->
<g id="edge23" class="edge">
<title>18&#45;&gt;20</title>
<path fill="none" stroke="#0d0e73" stroke-width="0.5" d="M1498.03,-367.51C1447.37,-355.61 1387.1,-341.44 1335.95,-329.43"/>
<polygon fill="#0d0e73" stroke="#0d0e73" stroke-width="0.5" points="1336.4,-328.27 1332.71,-328.66 1335.84,-330.66 1336.4,-328.27"/>
<text text-anchor="middle" x="1491" y="-351" font-family="Arial" font-size="10.00" fill="#0d0e73">0.26%</text>
<text text-anchor="middle" x="1491" y="-340" font-family="Arial" font-size="10.00" fill="#0d0e73">2131098200×</text>
</g>
<!-- 24&#45;&gt;20 -->
<g id="edge25" class="edge">
<title>24&#45;&gt;20</title>
<path fill="none" stroke="#0d0e73" stroke-width="0.5" d="M1773.81,-368.57C1772.37,-368.38 1770.93,-368.19 1769.5,-368 1659.8,-353.62 1632.68,-347.02 1522.5,-337 1453.25,-330.7 1434.46,-336.04 1363.66,-328"/>
<polygon fill="#0d0e73" stroke="#0d0e73" stroke-width="0.5" points="1364.17,-326.83 1360.56,-327.64 1363.89,-329.26 1364.17,-326.83"/>
<text text-anchor="middle" x="1732" y="-351" font-family="Arial" font-size="10.00" fill="#0d0e73">0.22%</text>
<text text-anchor="middle" x="1732" y="-340" font-family="Arial" font-size="10.00" fill="#0d0e73">1810989600×</text>
</g>
<!-- 10 -->
<g id="node12" class="node">
<title>10</title>
<polygon fill="#0d1675" stroke="#0d1675" points="2130.5,-328 1368.5,-328 1368.5,-276 2130.5,-276 2130.5,-328"/>
<text text-anchor="middle" x="1749.5" y="-316" font-family="Arial" font-size="10.00" fill="#ffffff">VisualOdometryMono::fundamentalMatrix(std::vector&lt;Matcher::p_match, std::allocator&lt;Matcher::p_match&gt; &gt; const&amp;, std::vector&lt;int, std::allocator&lt;int&gt; &gt; const&amp;, Matrix&amp;)</text>
<text text-anchor="middle" x="1749.5" y="-305" font-family="Arial" font-size="10.00" fill="#ffffff">2.10%</text>
<text text-anchor="middle" x="1749.5" y="-294" font-family="Arial" font-size="10.00" fill="#ffffff">(0.02%)</text>
<text text-anchor="middle" x="1749.5" y="-283" font-family="Arial" font-size="10.00" fill="#ffffff">1824257×</text>
</g>
<!-- 6&#45;&gt;10 -->
<g id="edge11" class="edge">
<title>6&#45;&gt;10</title>
<path fill="none" stroke="#0d1074" stroke-width="0.5" d="M2206.09,-367.51C2120.99,-355.49 2019.59,-341.16 1933.98,-329.06"/>
<polygon fill="#0d1074" stroke="#0d1074" stroke-width="0.5" points="1934.3,-327.87 1930.66,-328.6 1933.96,-330.3 1934.3,-327.87"/>
<text text-anchor="middle" x="2163.5" y="-351" font-family="Arial" font-size="10.00" fill="#0d1074">0.86%</text>
<text text-anchor="middle" x="2163.5" y="-340" font-family="Arial" font-size="10.00" fill="#0d1074">744372×</text>
</g>
<!-- 14 -->
<g id="node13" class="node">
<title>14</title>
<polygon fill="#0d1274" stroke="#0d1274" points="2633.5,-328 2139.5,-328 2139.5,-276 2633.5,-276 2633.5,-328"/>
<text text-anchor="middle" x="2386.5" y="-316" font-family="Arial" font-size="10.00" fill="#ffffff">VisualOdometryMono::getInlier(std::vector&lt;Matcher::p_match, std::allocator&lt;Matcher::p_match&gt; &gt;&amp;, Matrix&amp;)</text>
<text text-anchor="middle" x="2386.5" y="-305" font-family="Arial" font-size="10.00" fill="#ffffff">1.23%</text>
<text text-anchor="middle" x="2386.5" y="-294" font-family="Arial" font-size="10.00" fill="#ffffff">(0.91%)</text>
<text text-anchor="middle" x="2386.5" y="-283" font-family="Arial" font-size="10.00" fill="#ffffff">744000×</text>
</g>
<!-- 6&#45;&gt;14 -->
<g id="edge12" class="edge">
<title>6&#45;&gt;14</title>
<path fill="none" stroke="#0d1274" stroke-width="0.5" d="M2386.5,-367.93C2386.5,-356.91 2386.5,-343.88 2386.5,-332.4"/>
<polygon fill="#0d1274" stroke="#0d1274" stroke-width="0.5" points="2387.73,-332.5 2386.5,-329 2385.28,-332.5 2387.73,-332.5"/>
<text text-anchor="middle" x="2405.5" y="-351" font-family="Arial" font-size="10.00" fill="#0d1274">1.23%</text>
<text text-anchor="middle" x="2405.5" y="-340" font-family="Arial" font-size="10.00" fill="#0d1274">744000×</text>
</g>
<!-- 15 -->
<g id="node14" class="node">
<title>15</title>
<polygon fill="#0d1274" stroke="#0d1274" points="2924,-328 2643,-328 2643,-276 2924,-276 2924,-328"/>
<text text-anchor="middle" x="2783.5" y="-316" font-family="Arial" font-size="10.00" fill="#ffffff">VisualOdometryMono::smallerThanMedian(Matrix&amp;, double&amp;)</text>
<text text-anchor="middle" x="2783.5" y="-305" font-family="Arial" font-size="10.00" fill="#ffffff">1.20%</text>
<text text-anchor="middle" x="2783.5" y="-294" font-family="Arial" font-size="10.00" fill="#ffffff">(0.00%)</text>
<text text-anchor="middle" x="2783.5" y="-283" font-family="Arial" font-size="10.00" fill="#ffffff">372×</text>
</g>
<!-- 6&#45;&gt;15 -->
<g id="edge13" class="edge">
<title>6&#45;&gt;15</title>
<path fill="none" stroke="#0d1274" stroke-width="0.5" d="M2498.94,-367.51C2551.45,-355.61 2613.92,-341.44 2666.94,-329.43"/>
<polygon fill="#0d1274" stroke="#0d1274" stroke-width="0.5" points="2667.18,-330.63 2670.32,-328.66 2666.64,-328.24 2667.18,-330.63"/>
<text text-anchor="middle" x="2646.5" y="-351" font-family="Arial" font-size="10.00" fill="#0d1274">1.20%</text>
<text text-anchor="middle" x="2646.5" y="-340" font-family="Arial" font-size="10.00" fill="#0d1274">372×</text>
</g>
<!-- 21 -->
<g id="node15" class="node">
<title>21</title>
<polygon fill="#0d1074" stroke="#0d1074" points="3141.5,-328 2933.5,-328 2933.5,-276 3141.5,-276 3141.5,-328"/>
<text text-anchor="middle" x="3037.5" y="-316" font-family="Arial" font-size="10.00" fill="#ffffff">VisualOdometry::getRandomSample(int, int)</text>
<text text-anchor="middle" x="3037.5" y="-305" font-family="Arial" font-size="10.00" fill="#ffffff">0.76%</text>
<text text-anchor="middle" x="3037.5" y="-294" font-family="Arial" font-size="10.00" fill="#ffffff">(0.08%)</text>
<text text-anchor="middle" x="3037.5" y="-283" font-family="Arial" font-size="10.00" fill="#ffffff">744000×</text>
</g>
<!-- 6&#45;&gt;21 -->
<g id="edge14" class="edge">
<title>6&#45;&gt;21</title>
<path fill="none" stroke="#0d1074" stroke-width="0.5" d="M2627.43,-369.65C2721.67,-359.07 2830.47,-345.07 2928.5,-328 2928.69,-327.97 2928.88,-327.93 2929.07,-327.9"/>
<polygon fill="#0d1074" stroke="#0d1074" stroke-width="0.5" points="2929.15,-329.13 2932.38,-327.31 2928.72,-326.72 2929.15,-329.13"/>
<text text-anchor="middle" x="2889.5" y="-351" font-family="Arial" font-size="10.00" fill="#0d1074">0.76%</text>
<text text-anchor="middle" x="2889.5" y="-340" font-family="Arial" font-size="10.00" fill="#0d1074">744000×</text>
</g>
<!-- 8 -->
<g id="node17" class="node">
<title>8</title>
<polygon fill="#0d1776" stroke="#0d1776" points="1811,-236 1628,-236 1628,-184 1811,-184 1811,-236"/>
<text text-anchor="middle" x="1719.5" y="-224" font-family="Arial" font-size="10.00" fill="#ffffff">Matrix::svd(Matrix&amp;, Matrix&amp;, Matrix&amp;)</text>
<text text-anchor="middle" x="1719.5" y="-213" font-family="Arial" font-size="10.00" fill="#ffffff">2.42%</text>
<text text-anchor="middle" x="1719.5" y="-202" font-family="Arial" font-size="10.00" fill="#ffffff">(1.85%)</text>
<text text-anchor="middle" x="1719.5" y="-191" font-family="Arial" font-size="10.00" fill="#ffffff">1816876×</text>
</g>
<!-- 10&#45;&gt;8 -->
<g id="edge17" class="edge">
<title>10&#45;&gt;8</title>
<path fill="none" stroke="#0d1575" stroke-width="0.5" d="M1741.14,-275.93C1737.44,-264.81 1733.05,-251.65 1729.2,-240.1"/>
<polygon fill="#0d1575" stroke="#0d1575" stroke-width="0.5" points="1730.42,-239.9 1728.16,-236.97 1728.1,-240.67 1730.42,-239.9"/>
<text text-anchor="middle" x="1760" y="-259" font-family="Arial" font-size="10.00" fill="#0d1575">1.98%</text>
<text text-anchor="middle" x="1760" y="-248" font-family="Arial" font-size="10.00" fill="#0d1575">1488744×</text>
</g>
<!-- 19 -->
<g id="node24" class="node">
<title>19</title>
<polygon fill="#0d1074" stroke="#0d1074" points="3925,-236 1820,-236 1820,-184 3925,-184 3925,-236"/>
<text text-anchor="middle" x="2872.5" y="-224" font-family="Arial" font-size="10.00" fill="#ffffff">void std::__sort&lt;__gnu_cxx::__normal_iterator&lt;int*, std::vector&lt;int, std::allocator&lt;int&gt; &gt; &gt;, __gnu_cxx::__ops::_Iter_comp_iter&lt;VisualOdometryMono::idx_cmp&lt;std::vector&lt;double, std::allocator&lt;double&gt; &gt;&amp;&gt; &gt; &gt;(__gnu_cxx::__normal_iterator&lt;int*, std::vector&lt;int, std::allocator&lt;int&gt; &gt; &gt;, __gnu_cxx::__normal_iterator&lt;int*, std::vector&lt;int, std::allocator&lt;int&gt; &gt; &gt;, __gnu_cxx::__ops::_Iter_comp_iter&lt;VisualOdometryMono::idx_cmp&lt;std::vector&lt;double, std::allocator&lt;double&gt; &gt;&amp;&gt; &gt;)</text>
<text text-anchor="middle" x="2872.5" y="-213" font-family="Arial" font-size="10.00" fill="#ffffff">0.87%</text>
<text text-anchor="middle" x="2872.5" y="-202" font-family="Arial" font-size="10.00" fill="#ffffff">(0.00%)</text>
<text text-anchor="middle" x="2872.5" y="-191" font-family="Arial" font-size="10.00" fill="#ffffff">372×</text>
</g>
<!-- 15&#45;&gt;19 -->
<g id="edge22" class="edge">
<title>15&#45;&gt;19</title>
<path fill="none" stroke="#0d1074" stroke-width="0.5" d="M2808.29,-275.93C2819.58,-264.52 2832.98,-250.96 2844.62,-239.2"/>
<polygon fill="#0d1074" stroke="#0d1074" stroke-width="0.5" points="2845.41,-240.14 2847,-236.79 2843.67,-238.41 2845.41,-240.14"/>
<text text-anchor="middle" x="2853.5" y="-259" font-family="Arial" font-size="10.00" fill="#0d1074">0.87%</text>
<text text-anchor="middle" x="2853.5" y="-248" font-family="Arial" font-size="10.00" fill="#0d1074">372×</text>
</g>
<!-- 16 -->
<g id="node23" class="node">
<title>16</title>
<polygon fill="#0d1174" stroke="#0d1174" points="3390.5,-328 3150.5,-328 3150.5,-276 3390.5,-276 3390.5,-328"/>
<text text-anchor="middle" x="3270.5" y="-316" font-family="Arial" font-size="10.00" fill="#ffffff">delaunator::Delaunator::InsertionSort(int*, data*, int)</text>
<text text-anchor="middle" x="3270.5" y="-305" font-family="Arial" font-size="10.00" fill="#ffffff">1.10%</text>
<text text-anchor="middle" x="3270.5" y="-294" font-family="Arial" font-size="10.00" fill="#ffffff">(1.10%)</text>
<text text-anchor="middle" x="3270.5" y="-283" font-family="Arial" font-size="10.00" fill="#ffffff">372×</text>
</g>
<!-- 13&#45;&gt;16 -->
<g id="edge21" class="edge">
<title>13&#45;&gt;16</title>
<path fill="none" stroke="#0d1174" stroke-width="0.5" d="M3103.33,-367.57C3133.85,-355.78 3170.13,-341.77 3201.08,-329.81"/>
<polygon fill="#0d1174" stroke="#0d1174" stroke-width="0.5" points="3201.3,-331.04 3204.12,-328.64 3200.42,-328.76 3201.3,-331.04"/>
<text text-anchor="middle" x="3196.5" y="-351" font-family="Arial" font-size="10.00" fill="#0d1174">1.10%</text>
<text text-anchor="middle" x="3196.5" y="-340" font-family="Arial" font-size="10.00" fill="#0d1174">372×</text>
</g>
<!-- 12 -->
<g id="node20" class="node">
<title>12</title>
<polygon fill="#0d1475" stroke="#0d1475" points="3291,-593 3210,-593 3210,-552 3291,-552 3291,-593"/>
<text text-anchor="middle" x="3250.5" y="-581" font-family="Arial" font-size="10.00" fill="#ffffff">__libc_csu_init</text>
<text text-anchor="middle" x="3250.5" y="-570" font-family="Arial" font-size="10.00" fill="#ffffff">1.79%</text>
<text text-anchor="middle" x="3250.5" y="-559" font-family="Arial" font-size="10.00" fill="#ffffff">(0.00%)</text>
</g>
<!-- 17 -->
<g id="node21" class="node">
<title>17</title>
<polygon fill="#0d1174" stroke="#0d1174" points="3256.5,-512 2942.5,-512 2942.5,-460 3256.5,-460 3256.5,-512"/>
<text text-anchor="middle" x="3099.5" y="-500" font-family="Arial" font-size="10.00" fill="#ffffff">__static_initialization_and_destruction_0(int, int) [clone .constprop.0]</text>
<text text-anchor="middle" x="3099.5" y="-489" font-family="Arial" font-size="10.00" fill="#ffffff">1.01%</text>
<text text-anchor="middle" x="3099.5" y="-478" font-family="Arial" font-size="10.00" fill="#ffffff">(1.01%)</text>
<text text-anchor="middle" x="3099.5" y="-467" font-family="Arial" font-size="10.00" fill="#ffffff">1×</text>
</g>
<!-- 12&#45;&gt;17 -->
<g id="edge19" class="edge">
<title>12&#45;&gt;17</title>
<path fill="none" stroke="#0d1174" stroke-width="0.5" d="M3215.1,-551.69C3195.24,-540.58 3170.17,-526.55 3148.45,-514.39"/>
<polygon fill="#0d1174" stroke="#0d1174" stroke-width="0.5" points="3149.31,-513.47 3145.66,-512.83 3148.11,-515.61 3149.31,-513.47"/>
<text text-anchor="middle" x="3211.5" y="-535" font-family="Arial" font-size="10.00" fill="#0d1174">1.01%</text>
<text text-anchor="middle" x="3211.5" y="-524" font-family="Arial" font-size="10.00" fill="#0d1174">1×</text>
</g>
<!-- 22 -->
<g id="node22" class="node">
<title>22</title>
<polygon fill="#0d1074" stroke="#0d1074" points="3537.5,-512 3265.5,-512 3265.5,-460 3537.5,-460 3537.5,-512"/>
<text text-anchor="middle" x="3401.5" y="-500" font-family="Arial" font-size="10.00" fill="#ffffff">_GLOBAL__sub_I__Z19myComputeDescriptorPKhS0_iiiPh</text>
<text text-anchor="middle" x="3401.5" y="-489" font-family="Arial" font-size="10.00" fill="#ffffff">0.76%</text>
<text text-anchor="middle" x="3401.5" y="-478" font-family="Arial" font-size="10.00" fill="#ffffff">(0.76%)</text>
<text text-anchor="middle" x="3401.5" y="-467" font-family="Arial" font-size="10.00" fill="#ffffff">1×</text>
</g>
<!-- 12&#45;&gt;22 -->
<g id="edge20" class="edge">
<title>12&#45;&gt;22</title>
<path fill="none" stroke="#0d1074" stroke-width="0.5" d="M3285.9,-551.69C3305.76,-540.58 3330.83,-526.55 3352.55,-514.39"/>
<polygon fill="#0d1074" stroke="#0d1074" stroke-width="0.5" points="3352.89,-515.61 3355.34,-512.83 3351.69,-513.47 3352.89,-515.61"/>
<text text-anchor="middle" x="3354.5" y="-535" font-family="Arial" font-size="10.00" fill="#0d1074">0.76%</text>
<text text-anchor="middle" x="3354.5" y="-524" font-family="Arial" font-size="10.00" fill="#0d1074">1×</text>
</g>
<!-- 25 -->
<g id="node25" class="node">
<title>25</title>
<polygon fill="#0d0f73" stroke="#0d0f73" points="3970,-144 1775,-144 1775,-92 3970,-92 3970,-144"/>
<text text-anchor="middle" x="2872.5" y="-132" font-family="Arial" font-size="10.00" fill="#ffffff">void std::__introsort_loop&lt;__gnu_cxx::__normal_iterator&lt;int*, std::vector&lt;int, std::allocator&lt;int&gt; &gt; &gt;, long, __gnu_cxx::__ops::_Iter_comp_iter&lt;VisualOdometryMono::idx_cmp&lt;std::vector&lt;double, std::allocator&lt;double&gt; &gt;&amp;&gt; &gt; &gt;(__gnu_cxx::__normal_iterator&lt;int*, std::vector&lt;int, std::allocator&lt;int&gt; &gt; &gt;, __gnu_cxx::__normal_iterator&lt;int*, std::vector&lt;int, std::allocator&lt;int&gt; &gt; &gt;, long, __gnu_cxx::__ops::_Iter_comp_iter&lt;VisualOdometryMono::idx_cmp&lt;std::vector&lt;double, std::allocator&lt;double&gt; &gt;&amp;&gt; &gt;)</text>
<text text-anchor="middle" x="2872.5" y="-121" font-family="Arial" font-size="10.00" fill="#ffffff">0.53%</text>
<text text-anchor="middle" x="2872.5" y="-110" font-family="Arial" font-size="10.00" fill="#ffffff">(0.00%)</text>
<text text-anchor="middle" x="2872.5" y="-99" font-family="Arial" font-size="10.00" fill="#ffffff">8221×</text>
</g>
<!-- 19&#45;&gt;25 -->
<g id="edge24" class="edge">
<title>19&#45;&gt;25</title>
<path fill="none" stroke="#0d0f73" stroke-width="0.5" d="M2872.5,-183.93C2872.5,-172.91 2872.5,-159.88 2872.5,-148.4"/>
<polygon fill="#0d0f73" stroke="#0d0f73" stroke-width="0.5" points="2873.73,-148.5 2872.5,-145 2871.28,-148.5 2873.73,-148.5"/>
<text text-anchor="middle" x="2886.5" y="-167" font-family="Arial" font-size="10.00" fill="#0d0f73">0.53%</text>
<text text-anchor="middle" x="2886.5" y="-156" font-family="Arial" font-size="10.00" fill="#0d0f73">372×</text>
</g>
<!-- 25&#45;&gt;25 -->
<g id="edge26" class="edge">
<title>25&#45;&gt;25</title>
<path fill="none" stroke="#0d0f73" stroke-width="0.5" d="M3970.37,-120.05C3976.03,-119.41 3979,-118.73 3979,-118 3979,-117.48 3977.46,-116.97 3974.5,-116.5"/>
<polygon fill="#0d0f73" stroke="#0d0f73" stroke-width="0.5" points="3974.75,-115.3 3971.12,-116.05 3974.42,-117.72 3974.75,-115.3"/>
<text text-anchor="middle" x="3993" y="-115.5" font-family="Arial" font-size="10.00" fill="#0d0f73">7849×</text>
</g>
<!-- 26 -->
<g id="node26" class="node">
<title>26</title>
<polygon fill="#0d0f73" stroke="#0d0f73" points="4123,-52 1622,-52 1622,0 4123,0 4123,-52"/>
<text text-anchor="middle" x="2872.5" y="-40" font-family="Arial" font-size="10.00" fill="#ffffff">__gnu_cxx::__normal_iterator&lt;int*, std::vector&lt;int, std::allocator&lt;int&gt; &gt; &gt; std::__unguarded_partition_pivot&lt;__gnu_cxx::__normal_iterator&lt;int*, std::vector&lt;int, std::allocator&lt;int&gt; &gt; &gt;, __gnu_cxx::__ops::_Iter_comp_iter&lt;VisualOdometryMono::idx_cmp&lt;std::vector&lt;double, std::allocator&lt;double&gt; &gt;&amp;&gt; &gt; &gt;(__gnu_cxx::__normal_iterator&lt;int*, std::vector&lt;int, std::allocator&lt;int&gt; &gt; &gt;, __gnu_cxx::__normal_iterator&lt;int*, std::vector&lt;int, std::allocator&lt;int&gt; &gt; &gt;, __gnu_cxx::__ops::_Iter_comp_iter&lt;VisualOdometryMono::idx_cmp&lt;std::vector&lt;double, std::allocator&lt;double&gt; &gt;&amp;&gt; &gt;)</text>
<text text-anchor="middle" x="2872.5" y="-29" font-family="Arial" font-size="10.00" fill="#ffffff">0.53%</text>
<text text-anchor="middle" x="2872.5" y="-18" font-family="Arial" font-size="10.00" fill="#ffffff">(0.00%)</text>
<text text-anchor="middle" x="2872.5" y="-7" font-family="Arial" font-size="10.00" fill="#ffffff">7849×</text>
</g>
<!-- 25&#45;&gt;26 -->
<g id="edge27" class="edge">
<title>25&#45;&gt;26</title>
<path fill="none" stroke="#0d0f73" stroke-width="0.5" d="M2872.5,-91.93C2872.5,-80.91 2872.5,-67.88 2872.5,-56.4"/>
<polygon fill="#0d0f73" stroke="#0d0f73" stroke-width="0.5" points="2873.73,-56.5 2872.5,-53 2871.28,-56.5 2873.73,-56.5"/>
<text text-anchor="middle" x="2886.5" y="-75" font-family="Arial" font-size="10.00" fill="#0d0f73">0.53%</text>
<text text-anchor="middle" x="2886.5" y="-64" font-family="Arial" font-size="10.00" fill="#0d0f73">7849×</text>
</g>
</g>
</svg>
