<?xml version="1.0" encoding="UTF-8" standalone="no"?>
<!DOCTYPE svg PUBLIC "-//W3C//DTD SVG 1.1//EN"
 "http://www.w3.org/Graphics/SVG/1.1/DTD/svg11.dtd">
<!-- Generated by graphviz version 7.0.4 (20221203.1631)
 -->
<!-- Pages: 1 -->
<svg width="2302pt" height="417pt"
 viewBox="0.00 0.00 2302.00 417.00" xmlns="http://www.w3.org/2000/svg" xmlns:xlink="http://www.w3.org/1999/xlink">
<g id="graph0" class="graph" transform="scale(1 1) rotate(0) translate(4 413)">
<polygon fill="white" stroke="none" points="-4,4 -4,-413 2298,-413 2298,4 -4,4"/>
<!-- 1 -->
<g id="node1" class="node">
<title>1</title>
<polygon fill="#ff0100" stroke="#ff0100" points="1410,-409 1360,-409 1360,-368 1410,-368 1410,-409"/>
<text text-anchor="middle" x="1385" y="-397" font-family="Arial" font-size="10.00" fill="#ffffff">main</text>
<text text-anchor="middle" x="1385" y="-386" font-family="Arial" font-size="10.00" fill="#ffffff">99.89%</text>
<text text-anchor="middle" x="1385" y="-375" font-family="Arial" font-size="10.00" fill="#ffffff">(0.00%)</text>
</g>
<!-- 2 -->
<g id="node2" class="node">
<title>2</title>
<polygon fill="#f82f01" stroke="#f82f01" points="760.5,-328 497.5,-328 497.5,-276 760.5,-276 760.5,-328"/>
<text text-anchor="middle" x="629" y="-316" font-family="Arial" font-size="10.00" fill="#ffffff">myMatching(int*, int*, int*, int*, Matcher::p_match*, int&amp;)</text>
<text text-anchor="middle" x="629" y="-305" font-family="Arial" font-size="10.00" fill="#ffffff">95.31%</text>
<text text-anchor="middle" x="629" y="-294" font-family="Arial" font-size="10.00" fill="#ffffff">(0.06%)</text>
<text text-anchor="middle" x="629" y="-283" font-family="Arial" font-size="10.00" fill="#ffffff">373×</text>
</g>
<!-- 1&#45;&gt;2 -->
<g id="edge1" class="edge">
<title>1&#45;&gt;2</title>
<path fill="none" stroke="#f82f01" stroke-width="3.81" d="M1359.85,-384.69C1270.32,-374.68 962.59,-340.29 776.18,-319.45"/>
<polygon fill="#f82f01" stroke="#f82f01" stroke-width="3.81" points="776.61,-316.05 766.49,-318.37 775.85,-322.87 776.61,-316.05"/>
<text text-anchor="middle" x="1136" y="-351" font-family="Arial" font-size="10.00" fill="#f82f01">95.31%</text>
<text text-anchor="middle" x="1136" y="-340" font-family="Arial" font-size="10.00" fill="#f82f01">373×</text>
</g>
<!-- 4 -->
<g id="node3" class="node">
<title>4</title>
<polygon fill="#0d1776" stroke="#0d1776" points="1376,-328 1158,-328 1158,-276 1376,-276 1376,-328"/>
<text text-anchor="middle" x="1267" y="-316" font-family="Arial" font-size="10.00" fill="#ffffff">myComputeFeatures(unsigned char*, int*, int*)</text>
<text text-anchor="middle" x="1267" y="-305" font-family="Arial" font-size="10.00" fill="#ffffff">2.51%</text>
<text text-anchor="middle" x="1267" y="-294" font-family="Arial" font-size="10.00" fill="#ffffff">(0.00%)</text>
<text text-anchor="middle" x="1267" y="-283" font-family="Arial" font-size="10.00" fill="#ffffff">373×</text>
</g>
<!-- 1&#45;&gt;4 -->
<g id="edge2" class="edge">
<title>1&#45;&gt;4</title>
<path fill="none" stroke="#0d1776" stroke-width="0.5" d="M1359.69,-369.37C1343.94,-358.1 1323.38,-343.37 1305.62,-330.66"/>
<polygon fill="#0d1776" stroke="#0d1776" stroke-width="0.5" points="1306.74,-329.95 1303.18,-328.91 1305.32,-331.94 1306.74,-329.95"/>
<text text-anchor="middle" x="1358" y="-351" font-family="Arial" font-size="10.00" fill="#0d1776">2.51%</text>
<text text-anchor="middle" x="1358" y="-340" font-family="Arial" font-size="10.00" fill="#0d1776">373×</text>
</g>
<!-- 5 -->
<g id="node4" class="node">
<title>5</title>
<polygon fill="#0d1274" stroke="#0d1274" points="1882.5,-328 1427.5,-328 1427.5,-276 1882.5,-276 1882.5,-328"/>
<text text-anchor="middle" x="1655" y="-316" font-family="Arial" font-size="10.00" fill="#ffffff">VisualOdometry::updateMotion(std::vector&lt;Matcher::p_match, std::allocator&lt;Matcher::p_match&gt; &gt;&amp;)</text>
<text text-anchor="middle" x="1655" y="-305" font-family="Arial" font-size="10.00" fill="#ffffff">1.29%</text>
<text text-anchor="middle" x="1655" y="-294" font-family="Arial" font-size="10.00" fill="#ffffff">(0.00%)</text>
<text text-anchor="middle" x="1655" y="-283" font-family="Arial" font-size="10.00" fill="#ffffff">373×</text>
</g>
<!-- 1&#45;&gt;5 -->
<g id="edge3" class="edge">
<title>1&#45;&gt;5</title>
<path fill="none" stroke="#0d1274" stroke-width="0.5" d="M1410.4,-379.55C1446.55,-368.24 1514.58,-346.95 1569.73,-329.69"/>
<polygon fill="#0d1274" stroke="#0d1274" stroke-width="0.5" points="1569.98,-330.89 1572.96,-328.68 1569.25,-328.55 1569.98,-330.89"/>
<text text-anchor="middle" x="1559" y="-351" font-family="Arial" font-size="10.00" fill="#0d1274">1.29%</text>
<text text-anchor="middle" x="1559" y="-340" font-family="Arial" font-size="10.00" fill="#0d1274">373×</text>
</g>
<!-- 9 -->
<g id="node5" class="node">
<title>9</title>
<polygon fill="#0d1074" stroke="#0d1074" points="2169.5,-328 1912.5,-328 1912.5,-276 2169.5,-276 2169.5,-328"/>
<text text-anchor="middle" x="2041" y="-316" font-family="Arial" font-size="10.00" fill="#ffffff">removeOutliers(Matcher::p_match*, int&amp;, int, float, float)</text>
<text text-anchor="middle" x="2041" y="-305" font-family="Arial" font-size="10.00" fill="#ffffff">0.78%</text>
<text text-anchor="middle" x="2041" y="-294" font-family="Arial" font-size="10.00" fill="#ffffff">(0.01%)</text>
<text text-anchor="middle" x="2041" y="-283" font-family="Arial" font-size="10.00" fill="#ffffff">373×</text>
</g>
<!-- 1&#45;&gt;9 -->
<g id="edge4" class="edge">
<title>1&#45;&gt;9</title>
<path fill="none" stroke="#0d1074" stroke-width="0.5" d="M1410.38,-384.88C1484.13,-377.19 1704.7,-353.59 1887,-328 1893.9,-327.03 1900.97,-326 1908.11,-324.94"/>
<polygon fill="#0d1074" stroke="#0d1074" stroke-width="0.5" points="1908.05,-326.19 1911.33,-324.46 1907.69,-323.77 1908.05,-326.19"/>
<text text-anchor="middle" x="1833" y="-351" font-family="Arial" font-size="10.00" fill="#0d1074">0.78%</text>
<text text-anchor="middle" x="1833" y="-340" font-family="Arial" font-size="10.00" fill="#0d1074">373×</text>
</g>
<!-- 3 -->
<g id="node6" class="node">
<title>3</title>
<polygon fill="#f83001" stroke="#f83001" points="482,-236 0,-236 0,-184 482,-184 482,-236"/>
<text text-anchor="middle" x="241" y="-224" font-family="Arial" font-size="10.00" fill="#ffffff">myFindMatch(int*, int const&amp;, int*, int const&amp;, int (*) [160], int*, int const&amp;, int const&amp;, int const&amp;, int&amp;, int)</text>
<text text-anchor="middle" x="241" y="-213" font-family="Arial" font-size="10.00" fill="#ffffff">95.22%</text>
<text text-anchor="middle" x="241" y="-202" font-family="Arial" font-size="10.00" fill="#ffffff">(95.22%)</text>
<text text-anchor="middle" x="241" y="-191" font-family="Arial" font-size="10.00" fill="#ffffff">13421250×</text>
</g>
<!-- 2&#45;&gt;3 -->
<g id="edge5" class="edge">
<title>2&#45;&gt;3</title>
<path fill="none" stroke="#f83001" stroke-width="3.81" d="M519.11,-275.51C471.39,-264.44 415.25,-251.42 365.95,-239.98"/>
<polygon fill="#f83001" stroke="#f83001" stroke-width="3.81" points="366.83,-236.67 356.51,-237.79 365.28,-243.35 366.83,-236.67"/>
<text text-anchor="middle" x="506.5" y="-259" font-family="Arial" font-size="10.00" fill="#f83001">95.22%</text>
<text text-anchor="middle" x="506.5" y="-248" font-family="Arial" font-size="10.00" fill="#f83001">13421250×</text>
</g>
<!-- 7 -->
<g id="node7" class="node">
<title>7</title>
<polygon fill="#0d1174" stroke="#0d1174" points="1042.5,-236 491.5,-236 491.5,-184 1042.5,-184 1042.5,-236"/>
<text text-anchor="middle" x="767" y="-224" font-family="Arial" font-size="10.00" fill="#ffffff">myNonMaximumSuppression_and_ComputeDescriptors(short*, short*, int const*, unsigned char*, unsigned char*, int*, int*)</text>
<text text-anchor="middle" x="767" y="-213" font-family="Arial" font-size="10.00" fill="#ffffff">1.12%</text>
<text text-anchor="middle" x="767" y="-202" font-family="Arial" font-size="10.00" fill="#ffffff">(0.67%)</text>
<text text-anchor="middle" x="767" y="-191" font-family="Arial" font-size="10.00" fill="#ffffff">373×</text>
</g>
<!-- 4&#45;&gt;7 -->
<g id="edge6" class="edge">
<title>4&#45;&gt;7</title>
<path fill="none" stroke="#0d1174" stroke-width="0.5" d="M1157.58,-281.3C1085.72,-268.37 990.9,-251.3 912.69,-237.22"/>
<polygon fill="#0d1174" stroke="#0d1174" stroke-width="0.5" points="912.91,-236.02 909.25,-236.6 912.48,-238.43 912.91,-236.02"/>
<text text-anchor="middle" x="1091" y="-259" font-family="Arial" font-size="10.00" fill="#0d1174">1.12%</text>
<text text-anchor="middle" x="1091" y="-248" font-family="Arial" font-size="10.00" fill="#0d1174">373×</text>
</g>
<!-- 12 -->
<g id="node8" class="node">
<title>12</title>
<polygon fill="#0d0f74" stroke="#0d0f74" points="1482.5,-236 1051.5,-236 1051.5,-184 1482.5,-184 1482.5,-236"/>
<text text-anchor="middle" x="1267" y="-224" font-family="Arial" font-size="10.00" fill="#ffffff">mySobel5x5(unsigned char const*, unsigned char*, unsigned char*, int, int) [clone .constprop.0]</text>
<text text-anchor="middle" x="1267" y="-213" font-family="Arial" font-size="10.00" fill="#ffffff">0.62%</text>
<text text-anchor="middle" x="1267" y="-202" font-family="Arial" font-size="10.00" fill="#ffffff">(0.40%)</text>
<text text-anchor="middle" x="1267" y="-191" font-family="Arial" font-size="10.00" fill="#ffffff">373×</text>
</g>
<!-- 4&#45;&gt;12 -->
<g id="edge7" class="edge">
<title>4&#45;&gt;12</title>
<path fill="none" stroke="#0d0f74" stroke-width="0.5" d="M1267,-275.93C1267,-264.91 1267,-251.88 1267,-240.4"/>
<polygon fill="#0d0f74" stroke="#0d0f74" stroke-width="0.5" points="1268.23,-240.5 1267,-237 1265.78,-240.5 1268.23,-240.5"/>
<text text-anchor="middle" x="1281" y="-259" font-family="Arial" font-size="10.00" fill="#0d0f74">0.62%</text>
<text text-anchor="middle" x="1281" y="-248" font-family="Arial" font-size="10.00" fill="#0d0f74">373×</text>
</g>
<!-- 6 -->
<g id="node9" class="node">
<title>6</title>
<polygon fill="#0d1274" stroke="#0d1274" points="1972.5,-236 1491.5,-236 1491.5,-184 1972.5,-184 1972.5,-236"/>
<text text-anchor="middle" x="1732" y="-224" font-family="Arial" font-size="10.00" fill="#ffffff">VisualOdometryMono::estimateMotion(std::vector&lt;Matcher::p_match, std::allocator&lt;Matcher::p_match&gt; &gt;)</text>
<text text-anchor="middle" x="1732" y="-213" font-family="Arial" font-size="10.00" fill="#ffffff">1.28%</text>
<text text-anchor="middle" x="1732" y="-202" font-family="Arial" font-size="10.00" fill="#ffffff">(0.00%)</text>
<text text-anchor="middle" x="1732" y="-191" font-family="Arial" font-size="10.00" fill="#ffffff">373×</text>
</g>
<!-- 5&#45;&gt;6 -->
<g id="edge8" class="edge">
<title>5&#45;&gt;6</title>
<path fill="none" stroke="#0d1274" stroke-width="0.5" d="M1676.45,-275.93C1686.21,-264.52 1697.81,-250.96 1707.88,-239.2"/>
<polygon fill="#0d1274" stroke="#0d1274" stroke-width="0.5" points="1708.56,-240.28 1709.91,-236.82 1706.7,-238.69 1708.56,-240.28"/>
<text text-anchor="middle" x="1717" y="-259" font-family="Arial" font-size="10.00" fill="#0d1274">1.28%</text>
<text text-anchor="middle" x="1717" y="-248" font-family="Arial" font-size="10.00" fill="#0d1274">373×</text>
</g>
<!-- 10 -->
<g id="node12" class="node">
<title>10</title>
<polygon fill="#0d1074" stroke="#0d1074" points="2233.5,-236 2070.5,-236 2070.5,-184 2233.5,-184 2233.5,-236"/>
<text text-anchor="middle" x="2152" y="-224" font-family="Arial" font-size="10.00" fill="#ffffff">delaunator::Delaunator::delaunat()</text>
<text text-anchor="middle" x="2152" y="-213" font-family="Arial" font-size="10.00" fill="#ffffff">0.75%</text>
<text text-anchor="middle" x="2152" y="-202" font-family="Arial" font-size="10.00" fill="#ffffff">(0.01%)</text>
<text text-anchor="middle" x="2152" y="-191" font-family="Arial" font-size="10.00" fill="#ffffff">372×</text>
</g>
<!-- 9&#45;&gt;10 -->
<g id="edge11" class="edge">
<title>9&#45;&gt;10</title>
<path fill="none" stroke="#0d1074" stroke-width="0.5" d="M2072.22,-275.69C2086.28,-264.28 2102.95,-250.77 2117.4,-239.06"/>
<polygon fill="#0d1074" stroke="#0d1074" stroke-width="0.5" points="2118.1,-240.06 2120.05,-236.91 2116.56,-238.16 2118.1,-240.06"/>
<text text-anchor="middle" x="2124" y="-259" font-family="Arial" font-size="10.00" fill="#0d1074">0.75%</text>
<text text-anchor="middle" x="2124" y="-248" font-family="Arial" font-size="10.00" fill="#0d1074">372×</text>
</g>
<!-- 8 -->
<g id="node11" class="node">
<title>8</title>
<polygon fill="#0d1074" stroke="#0d1074" points="858.5,-144 675.5,-144 675.5,-92 858.5,-92 858.5,-144"/>
<text text-anchor="middle" x="767" y="-132" font-family="Arial" font-size="10.00" fill="#ffffff">myGetAddressOffsetImage(int, int, int)</text>
<text text-anchor="middle" x="767" y="-121" font-family="Arial" font-size="10.00" fill="#ffffff">0.79%</text>
<text text-anchor="middle" x="767" y="-110" font-family="Arial" font-size="10.00" fill="#ffffff">(0.79%)</text>
<text text-anchor="middle" x="767" y="-99" font-family="Arial" font-size="10.00" fill="#ffffff">10058016225×</text>
</g>
<!-- 7&#45;&gt;8 -->
<g id="edge10" class="edge">
<title>7&#45;&gt;8</title>
<path fill="none" stroke="#0d0f73" stroke-width="0.5" d="M767,-183.93C767,-172.91 767,-159.88 767,-148.4"/>
<polygon fill="#0d0f73" stroke="#0d0f73" stroke-width="0.5" points="768.23,-148.5 767,-145 765.78,-148.5 768.23,-148.5"/>
<text text-anchor="middle" x="796.5" y="-167" font-family="Arial" font-size="10.00" fill="#0d0f73">0.44%</text>
<text text-anchor="middle" x="796.5" y="-156" font-family="Arial" font-size="10.00" fill="#0d0f73">5577096000×</text>
</g>
<!-- 13 -->
<g id="node10" class="node">
<title>13</title>
<polygon fill="#0d0f74" stroke="#0d0f74" points="2045,-144 1283,-144 1283,-92 2045,-92 2045,-144"/>
<text text-anchor="middle" x="1664" y="-132" font-family="Arial" font-size="10.00" fill="#ffffff">VisualOdometryMono::fundamentalMatrix(std::vector&lt;Matcher::p_match, std::allocator&lt;Matcher::p_match&gt; &gt; const&amp;, std::vector&lt;int, std::allocator&lt;int&gt; &gt; const&amp;, Matrix&amp;)</text>
<text text-anchor="middle" x="1664" y="-121" font-family="Arial" font-size="10.00" fill="#ffffff">0.61%</text>
<text text-anchor="middle" x="1664" y="-110" font-family="Arial" font-size="10.00" fill="#ffffff">(0.00%)</text>
<text text-anchor="middle" x="1664" y="-99" font-family="Arial" font-size="10.00" fill="#ffffff">744372×</text>
</g>
<!-- 6&#45;&gt;13 -->
<g id="edge9" class="edge">
<title>6&#45;&gt;13</title>
<path fill="none" stroke="#0d0f74" stroke-width="0.5" d="M1713.06,-183.93C1704.51,-172.61 1694.37,-159.19 1685.53,-147.5"/>
<polygon fill="#0d0f74" stroke="#0d0f74" stroke-width="0.5" points="1686.62,-146.91 1683.53,-144.85 1684.66,-148.38 1686.62,-146.91"/>
<text text-anchor="middle" x="1726" y="-167" font-family="Arial" font-size="10.00" fill="#0d0f74">0.61%</text>
<text text-anchor="middle" x="1726" y="-156" font-family="Arial" font-size="10.00" fill="#0d0f74">744372×</text>
</g>
<!-- 11 -->
<g id="node14" class="node">
<title>11</title>
<polygon fill="#0d1074" stroke="#0d1074" points="1755.5,-52 1572.5,-52 1572.5,0 1755.5,0 1755.5,-52"/>
<text text-anchor="middle" x="1664" y="-40" font-family="Arial" font-size="10.00" fill="#ffffff">Matrix::svd(Matrix&amp;, Matrix&amp;, Matrix&amp;)</text>
<text text-anchor="middle" x="1664" y="-29" font-family="Arial" font-size="10.00" fill="#ffffff">0.69%</text>
<text text-anchor="middle" x="1664" y="-18" font-family="Arial" font-size="10.00" fill="#ffffff">(0.60%)</text>
<text text-anchor="middle" x="1664" y="-7" font-family="Arial" font-size="10.00" fill="#ffffff">1816876×</text>
</g>
<!-- 13&#45;&gt;11 -->
<g id="edge13" class="edge">
<title>13&#45;&gt;11</title>
<path fill="none" stroke="#0d0f73" stroke-width="0.5" d="M1664,-91.93C1664,-80.91 1664,-67.88 1664,-56.4"/>
<polygon fill="#0d0f73" stroke="#0d0f73" stroke-width="0.5" points="1665.23,-56.5 1664,-53 1662.78,-56.5 1665.23,-56.5"/>
<text text-anchor="middle" x="1685.5" y="-75" font-family="Arial" font-size="10.00" fill="#0d0f73">0.57%</text>
<text text-anchor="middle" x="1685.5" y="-64" font-family="Arial" font-size="10.00" fill="#0d0f73">1488744×</text>
</g>
<!-- 14 -->
<g id="node13" class="node">
<title>14</title>
<polygon fill="#0d0f73" stroke="#0d0f73" points="2294,-144 2054,-144 2054,-92 2294,-92 2294,-144"/>
<text text-anchor="middle" x="2174" y="-132" font-family="Arial" font-size="10.00" fill="#ffffff">delaunator::Delaunator::InsertionSort(int*, data*, int)</text>
<text text-anchor="middle" x="2174" y="-121" font-family="Arial" font-size="10.00" fill="#ffffff">0.54%</text>
<text text-anchor="middle" x="2174" y="-110" font-family="Arial" font-size="10.00" fill="#ffffff">(0.54%)</text>
<text text-anchor="middle" x="2174" y="-99" font-family="Arial" font-size="10.00" fill="#ffffff">372×</text>
</g>
<!-- 10&#45;&gt;14 -->
<g id="edge12" class="edge">
<title>10&#45;&gt;14</title>
<path fill="none" stroke="#0d0f73" stroke-width="0.5" d="M2158.13,-183.93C2160.85,-172.81 2164.06,-159.65 2166.89,-148.1"/>
<polygon fill="#0d0f73" stroke="#0d0f73" stroke-width="0.5" points="2168.01,-148.67 2167.65,-144.98 2165.63,-148.09 2168.01,-148.67"/>
<text text-anchor="middle" x="2180" y="-167" font-family="Arial" font-size="10.00" fill="#0d0f73">0.54%</text>
<text text-anchor="middle" x="2180" y="-156" font-family="Arial" font-size="10.00" fill="#0d0f73">372×</text>
</g>
</g>
</svg>
